<svg width="36" height="36" viewBox="0 0 36 36" fill="none" xmlns="http://www.w3.org/2000/svg">
<path d="M1.33325 9.66671V5.50004C1.33325 4.39497 1.77224 3.33516 2.55364 2.55376C3.33504 1.77236 4.39485 1.33337 5.49992 1.33337H9.66659M1.33325 26.3334V30.5C1.33325 31.6051 1.77224 32.6649 2.55364 33.4463C3.33504 34.2277 4.39485 34.6667 5.49992 34.6667H9.66659M26.3333 1.33337H30.4999C31.605 1.33337 32.6648 1.77236 33.4462 2.55376C34.2276 3.33516 34.6666 4.39497 34.6666 5.50004V9.66671M26.3333 34.6667H30.4999C31.605 34.6667 32.6648 34.2277 33.4462 33.4463C34.2276 32.6649 34.6666 31.6051 34.6666 30.5V26.3334M11.7499 13.8334H11.7708M24.2499 13.8334H24.2708M12.7916 24.3542C13.4705 23.6613 14.2809 23.1108 15.1752 22.735C16.0695 22.3592 17.0298 22.1657 17.9999 22.1657C18.97 22.1657 19.9303 22.3592 20.8247 22.735C21.719 23.1108 22.5293 23.6613 23.2083 24.3542" stroke="#E62222" stroke-width="2" stroke-linecap="round" stroke-linejoin="round"/>
</svg>
