<svg width="42" height="40" viewBox="0 0 42 40" fill="none" xmlns="http://www.w3.org/2000/svg">
<path d="M20 31.5417L13.75 28.4167M13.75 28.4167L1.25 34.6667V7.58337L13.75 1.33337M13.75 28.4167V1.33337M13.75 1.33337L26.25 7.58337M26.25 7.58337L38.75 1.33337V16.9584M26.25 7.58337V19.0417M34.5833 30.5V30.5209M39.0021 34.9188C39.8764 34.0448 40.4718 32.9311 40.7131 31.7187C40.9544 30.5063 40.8308 29.2495 40.3578 28.1074C39.8848 26.9652 39.0837 25.989 38.0558 25.3022C37.028 24.6153 35.8195 24.2487 34.5833 24.2487C33.3471 24.2487 32.1387 24.6153 31.1108 25.3022C30.083 25.989 29.2819 26.9652 28.8089 28.1074C28.3359 29.2495 28.2123 30.5063 28.4536 31.7187C28.6949 32.9311 29.2903 34.0448 30.1646 34.9188C31.0354 35.7917 32.5083 37.0959 34.5833 38.8334C36.7729 36.9792 38.2479 35.675 39.0021 34.9188Z" stroke="#354052" stroke-width="2" stroke-linecap="round" stroke-linejoin="round"/>
</svg>
